<?xml version="1.0" encoding="utf-8"?>
<!-- Generator: Adobe Illustrator 23.0.1, SVG Export Plug-In . SVG Version: 6.00 Build 0)  -->
<svg version="1.1" id="图层_1" xmlns="http://www.w3.org/2000/svg" xmlns:xlink="http://www.w3.org/1999/xlink" x="0px" y="0px"
	 viewBox="0 0 50 50" style="enable-background:new 0 0 50 50;" xml:space="preserve">
<style type="text/css">
	.st0{fill:#0A0A0A;}
</style>
<g id="DFL">
	<g id="category_x5F_dfl_1_">
		<g>
			<g>
				<path class="st0" d="M18.2,22.5h-14c-1.4,0-2.5-1.1-2.5-2.5V6c0-1.4,1.1-2.5,2.5-2.5h14c1.4,0,2.5,1.1,2.5,2.5v14
					C20.7,21.4,19.6,22.5,18.2,22.5z M4.7,19.5h13v-13h-13V19.5z"/>
			</g>
		</g>
		<g>
			<g>
				<path class="st0" d="M18.2,48.5h-14c-1.4,0-2.5-1.1-2.5-2.5V32c0-1.3,1.2-2.5,2.5-2.5h14c1.4,0,2.5,1.1,2.5,2.5v14
					C20.7,47.4,19.6,48.5,18.2,48.5z M4.7,45.5h13v-13h-13V45.5z"/>
			</g>
		</g>
		<g>
			<g>
				<path class="st0" d="M44.2,48.5h-14c-1.3,0-2.5-1.2-2.5-2.5V32c0-1.3,1.2-2.5,2.5-2.5h14c1.3,0,2.5,1.2,2.5,2.5v14
					C46.7,47.3,45.5,48.5,44.2,48.5z M30.7,45.5h13v-13h-13V45.5z"/>
			</g>
		</g>
		<g>
			<g>
				<path class="st0" d="M36.2,26.4c-0.6,0-1.3-0.2-1.8-0.7l-9.9-9.9c-1-1-1-2.5,0-3.5l9.9-9.9c1-1,2.5-1,3.5,0l9.9,9.9
					c1,1,1,2.5,0,3.5L38,25.7c0,0,0,0,0,0C37.5,26.2,36.8,26.4,36.2,26.4z M36.9,24.6L36.9,24.6L36.9,24.6z M27,14l9.2,9.2l9.2-9.2
					l-9.2-9.2L27,14z"/>
			</g>
		</g>
	</g>
</g>
<g id="Clicked">
</g>
</svg>
