<?xml version="1.0" encoding="utf-8"?>
<!-- Generator: Adobe Illustrator 23.0.1, SVG Export Plug-In . SVG Version: 6.00 Build 0)  -->
<svg version="1.1" id="图层_1" xmlns="http://www.w3.org/2000/svg" xmlns:xlink="http://www.w3.org/1999/xlink" x="0px" y="0px"
	 viewBox="0 0 50 50" style="enable-background:new 0 0 50 50;" xml:space="preserve">
<style type="text/css">
	.st0{fill:#0A0A0A;}
</style>
<g id="DFL">
	<g id="home_x5F_def_1_">
		<g>
			<path class="st0" d="M40.7,48.3h-12c-0.8,0-1.5-0.7-1.5-1.5V34.3h-5v12.5c0,0.8-0.7,1.5-1.5,1.5h-12c-0.8,0-1.5-0.7-1.5-1.5V25.3
				H3.7c-0.6,0-1.2-0.4-1.4-0.9c-0.2-0.6-0.1-1.2,0.3-1.6l21-21c0.6-0.6,1.5-0.6,2.1,0l22,21c0.6,0.6,0.6,1.5,0,2.1
				c-0.6,0.6-1.5,0.6-2.1,0l-20.9-20L7.3,22.3h1.4c0.8,0,1.5,0.7,1.5,1.5v21.5h9V32.8c0-0.8,0.7-1.5,1.5-1.5h8
				c0.8,0,1.5,0.7,1.5,1.5v12.5h9V26.8c0-0.8,0.7-1.5,1.5-1.5s1.5,0.7,1.5,1.5v20C42.2,47.6,41.5,48.3,40.7,48.3z"/>
		</g>
	</g>
</g>
<g id="Clicked">
</g>
</svg>
