<?xml version="1.0" encoding="utf-8"?>
<!-- Generator: Adobe Illustrator 22.0.0, SVG Export Plug-In . SVG Version: 6.00 Build 0)  -->
<svg version="1.1" xmlns="http://www.w3.org/2000/svg" xmlns:xlink="http://www.w3.org/1999/xlink" x="0px" y="0px"
	 viewBox="0 0 50 50.5" style="enable-background:new 0 0 50 50.5;" xml:space="preserve">
<style type="text/css">
	.st0{fill:none;stroke:#0A0A0A;stroke-width:3;stroke-linecap:round;stroke-linejoin:round;stroke-miterlimit:10;}
	.st1{fill:#0A0A0A;}
	.st2{fill:none;stroke:#2CC7BC;stroke-width:3;stroke-linecap:round;stroke-linejoin:round;stroke-miterlimit:10;}
	.st3{fill:#2CC7BC;}
	.st4{fill:none;stroke:#111111;stroke-width:3;stroke-linecap:round;stroke-linejoin:round;stroke-miterlimit:10;}
	.st5{opacity:0.15;}
	.st6{fill:#111111;}
	.st7{opacity:0.15;fill:#2CC7BC;}
	.st8{fill:none;stroke:#111111;stroke-width:3;stroke-miterlimit:10;}
	.st9{opacity:0.15;fill:#24C3BE;}
	.st10{fill:none;stroke:#111111;stroke-width:3;stroke-linecap:round;stroke-miterlimit:10;}
	.st11{fill:none;stroke:#000000;stroke-width:3;stroke-linecap:round;stroke-miterlimit:10;}
	.st12{fill:none;stroke:#0C0C0C;stroke-width:3;stroke-linecap:round;stroke-miterlimit:10;}
	.st13{fill:#0DE2DA;}
	.st14{fill:none;stroke:#0C0C0C;stroke-width:2;stroke-miterlimit:10;}
	.st15{fill:none;stroke:#0C0C0C;stroke-width:2;stroke-miterlimit:10;stroke-dasharray:4.0534,3.04;}
	.st16{fill:#0C0C0C;}
	.st17{fill:#24C3BE;}
	.st18{fill:none;stroke:#111111;stroke-width:3;stroke-linecap:square;stroke-miterlimit:10;}
	.st19{fill:none;stroke:#111111;stroke-width:2;stroke-miterlimit:10;}
	.st20{fill:none;stroke:#111111;stroke-width:2;stroke-linecap:round;stroke-miterlimit:10;}
	.st21{fill:#1E2020;}
	.st22{fill:#4F5353;}
	.st23{fill:#B0B4B4;}
	.st24{fill:url(#SVGID_1_);}
	.st25{fill:url(#SVGID_2_);}
	.st26{fill:url(#SVGID_3_);}
	.st27{fill:url(#SVGID_4_);}
	.st28{fill:url(#SVGID_5_);}
	.st29{fill:url(#SVGID_6_);}
	.st30{fill:url(#SVGID_7_);}
	.st31{fill:#F7F7F7;}
	.st32{fill:url(#SVGID_8_);}
	.st33{opacity:0.2;fill:#D5B885;}
	.st34{opacity:0.2;}
	.st35{fill:#D5B885;}
	.st36{fill:none;stroke:#000000;stroke-width:3;stroke-miterlimit:10;}
	.st37{clip-path:url(#SVGID_10_);fill:#040000;}
	.st38{fill:#040000;}
	.st39{display:none;}
	.st40{display:inline;fill:none;stroke:#111111;stroke-width:3;stroke-miterlimit:10;}
</style>
<g id="DFL">
</g>
<g id="Clicked">
</g>
<g id="my">
	<g>
		<path class="st9" d="M30.8,13c-1.7-1.7-1.7-4.4,0-6.1l-3.4-3.4c-1.1-1.1-2.9-1.1-4,0L1.2,25.8c-1.1,1.1-1.1,2.9,0,4l3.4,3.4
			c1.7-1.7,4.4-1.7,6.1,0s1.7,4.4,0,6.1l3.4,3.4c1.1,1.1,2.9,1.1,4,0l22.2-22.2c1.1-1.1,1.1-2.9,0-4L36.8,13
			C35.2,14.7,32.4,14.7,30.8,13z"/>
		<path class="st18" d="M36.9,14.7c-1.8-1.8-1.8-4.6,0-6.4l-3.5-3.5c-1.2-1.2-3.1-1.2-4.2,0L5.8,28.1c-1.2,1.2-1.2,3.1,0,4.2
			l3.5,3.5c1.8-1.8,4.6-1.8,6.4,0c1.8,1.8,1.8,4.6,0,6.4l3.5,3.5c1.2,1.2,3.1,1.2,4.2,0l23.3-23.3c1.2-1.2,1.2-3.1,0-4.2l-3.5-3.5
			C41.5,16.4,38.7,16.4,36.9,14.7z"/>
		<path class="st6" d="M31.5,17.7L19,30.3c-0.5,0.5-1.4,0.5-1.9,0l0,0c-0.5-0.5-0.5-1.4,0-1.9l12.6-12.6c0.5-0.5,1.4-0.5,1.9,0l0,0
			C32.1,16.4,32.1,17.2,31.5,17.7z"/>
		<path class="st6" d="M33.4,25.9L24,35.3c-0.5,0.5-1.4,0.5-1.9,0h0c-0.5-0.5-0.5-1.4,0-1.9l9.4-9.4c0.5-0.5,1.4-0.5,1.9,0v0
			C33.9,24.5,33.9,25.4,33.4,25.9z"/>
	</g>
</g>
<g id="图层_4">
</g>
</svg>
