<?xml version="1.0" encoding="utf-8"?>
<!-- Generator: Adobe Illustrator 22.0.0, SVG Export Plug-In . SVG Version: 6.00 Build 0)  -->
<svg version="1.1" xmlns="http://www.w3.org/2000/svg" xmlns:xlink="http://www.w3.org/1999/xlink" x="0px" y="0px"
	 viewBox="0 0 50 50.5" style="enable-background:new 0 0 50 50.5;" xml:space="preserve">
<style type="text/css">
	.st0{fill:none;stroke:#0A0A0A;stroke-width:3;stroke-linecap:round;stroke-linejoin:round;stroke-miterlimit:10;}
	.st1{fill:#0A0A0A;}
	.st2{fill:none;stroke:#2CC7BC;stroke-width:3;stroke-linecap:round;stroke-linejoin:round;stroke-miterlimit:10;}
	.st3{fill:#2CC7BC;}
	.st4{fill:none;stroke:#111111;stroke-width:3;stroke-linecap:round;stroke-linejoin:round;stroke-miterlimit:10;}
	.st5{opacity:0.15;}
	.st6{fill:#111111;}
	.st7{opacity:0.15;fill:#2CC7BC;}
	.st8{fill:none;stroke:#111111;stroke-width:3;stroke-miterlimit:10;}
	.st9{opacity:0.15;fill:#24C3BE;}
	.st10{fill:none;stroke:#111111;stroke-width:3;stroke-linecap:round;stroke-miterlimit:10;}
	.st11{fill:none;stroke:#000000;stroke-width:3;stroke-linecap:round;stroke-miterlimit:10;}
	.st12{fill:none;stroke:#0C0C0C;stroke-width:3;stroke-linecap:round;stroke-miterlimit:10;}
	.st13{fill:#0DE2DA;}
	.st14{fill:none;stroke:#0C0C0C;stroke-width:2;stroke-miterlimit:10;}
	.st15{fill:none;stroke:#0C0C0C;stroke-width:2;stroke-miterlimit:10;stroke-dasharray:4.0534,3.04;}
	.st16{fill:#0C0C0C;}
	.st17{fill:#24C3BE;}
	.st18{fill:none;stroke:#111111;stroke-width:3;stroke-linecap:square;stroke-miterlimit:10;}
	.st19{fill:none;stroke:#111111;stroke-width:2;stroke-miterlimit:10;}
	.st20{fill:none;stroke:#111111;stroke-width:2;stroke-linecap:round;stroke-miterlimit:10;}
	.st21{fill:#1E2020;}
	.st22{fill:#4F5353;}
	.st23{fill:#B0B4B4;}
	.st24{fill:url(#SVGID_1_);}
	.st25{fill:url(#SVGID_2_);}
	.st26{fill:url(#SVGID_3_);}
	.st27{fill:url(#SVGID_4_);}
	.st28{fill:url(#SVGID_5_);}
	.st29{fill:url(#SVGID_6_);}
	.st30{fill:url(#SVGID_7_);}
	.st31{fill:#F7F7F7;}
	.st32{fill:url(#SVGID_8_);}
	.st33{opacity:0.2;fill:#D5B885;}
	.st34{opacity:0.2;}
	.st35{fill:#D5B885;}
	.st36{fill:none;stroke:#000000;stroke-width:3;stroke-miterlimit:10;}
	.st37{clip-path:url(#SVGID_10_);fill:#040000;}
	.st38{fill:#040000;}
	.st39{display:none;}
	.st40{display:inline;fill:none;stroke:#111111;stroke-width:3;stroke-miterlimit:10;}
</style>
<g id="DFL">
</g>
<g id="Clicked">
</g>
<g id="my">
	<g>
		<g>
			<g class="st5">
				<path class="st3" d="M41.3,34.7c0,2.2-1.8,4-4,4H6.3c-2.2,0-4-1.8-4-4V14.5c0-2.2,1.8-4,4-4h30.9c2.2,0,4,1.8,4,4V34.7z"/>
			</g>
			<g>
				<path class="st10" d="M20.6,38.3H9.3c-1.7,0-3-1.4-3-3V10.1c0-1.6,1.3-3,3-3h34c1.7,0,3,1.3,3,3v25.1c0,1.6-1.3,3-3,3H33"/>
			</g>
			<line class="st12" x1="25.9" y1="44.5" x2="32.6" y2="38.3"/>
		</g>
		<path class="st6" d="M26.1,34.4c-0.5,0-0.9-0.2-1.2-0.5c-0.4-0.3-0.6-0.7-0.6-1.2c0-0.5,0.2-0.9,0.6-1.2c0.3-0.3,0.7-0.5,1.2-0.5
			s0.9,0.2,1.3,0.5c0.4,0.3,0.5,0.7,0.5,1.2c0,0.5-0.2,0.9-0.5,1.2l0,0l0,0C27,34.3,26.6,34.4,26.1,34.4L26.1,34.4z M24.9,29.1V28
			c0-0.9,0.2-1.7,0.6-2.4c0.5-0.9,1.5-2.1,2.9-3.3c0.8-0.7,1.2-1.1,1.4-1.4c0.6-0.8,0.9-1.6,0.9-2.4c0-1.2-0.4-2.1-1.1-2.8
			c-0.7-0.7-1.8-1-3.2-1c-1.6,0-2.7,0.5-3.5,1.5c-0.7,0.9-1.1,2-1.1,3.5l0,0.2h-2.3l0-0.2c0-2,0.6-3.6,1.8-4.9
			c1.2-1.4,3-2.1,5.2-2.1c2,0,3.6,0.6,4.8,1.6c1.2,1,1.7,2.4,1.7,4.2c0,1.3-0.4,2.4-1.2,3.4l0,0l0,0c-0.4,0.4-1.1,1-2.5,2.3l0,0l0,0
			c-0.7,0.6-1.2,1.1-1.5,1.6l0,0c-0.4,0.6-0.6,1.4-0.6,2.1v1.1L24.9,29.1L24.9,29.1z M24.9,29.1"/>
	</g>
</g>
<g id="图层_4">
</g>
</svg>
