<?xml version="1.0" encoding="utf-8"?>
<!-- Generator: Adobe Illustrator 22.0.0, SVG Export Plug-In . SVG Version: 6.00 Build 0)  -->
<svg version="1.1" xmlns="http://www.w3.org/2000/svg" xmlns:xlink="http://www.w3.org/1999/xlink" x="0px" y="0px"
	 viewBox="0 0 50 50.5" style="enable-background:new 0 0 50 50.5;" xml:space="preserve">
<style type="text/css">
	.st0{fill:none;stroke:#0A0A0A;stroke-width:3;stroke-linecap:round;stroke-linejoin:round;stroke-miterlimit:10;}
	.st1{fill:#0A0A0A;}
	.st2{fill:none;stroke:#2CC7BC;stroke-width:3;stroke-linecap:round;stroke-linejoin:round;stroke-miterlimit:10;}
	.st3{fill:#2CC7BC;}
	.st4{fill:none;stroke:#111111;stroke-width:3;stroke-miterlimit:10;}
	.st5{fill:none;stroke:#111111;stroke-width:3;stroke-linecap:round;stroke-linejoin:round;stroke-miterlimit:10;}
	.st6{opacity:0.15;}
	.st7{fill:#111111;}
	.st8{opacity:0.15;fill:#2CC7BC;}
	.st9{opacity:0.15;fill:#24C3BE;}
	.st10{fill:none;stroke:#111111;stroke-width:3;stroke-linecap:round;stroke-miterlimit:10;}
	.st11{fill:none;stroke:#000000;stroke-width:3;stroke-linecap:round;stroke-miterlimit:10;}
	.st12{fill:none;stroke:#0C0C0C;stroke-width:3;stroke-linecap:round;stroke-miterlimit:10;}
	.st13{fill:#0DE2DA;}
	.st14{fill:none;stroke:#0C0C0C;stroke-width:2;stroke-miterlimit:10;}
	.st15{fill:none;stroke:#0C0C0C;stroke-width:2;stroke-miterlimit:10;stroke-dasharray:4.0534,3.04;}
	.st16{fill:#0C0C0C;}
	.st17{fill:#24C3BE;}
	.st18{fill:none;stroke:#111111;stroke-width:3;stroke-linecap:square;stroke-miterlimit:10;}
	.st19{fill:none;stroke:#111111;stroke-width:2;stroke-miterlimit:10;}
	.st20{fill:none;stroke:#111111;stroke-width:2;stroke-linecap:round;stroke-miterlimit:10;}
	.st21{fill:#1E2020;}
	.st22{fill:#4F5353;}
	.st23{fill:#B0B4B4;}
	.st24{fill:url(#SVGID_1_);}
	.st25{fill:url(#SVGID_2_);}
	.st26{fill:url(#SVGID_3_);}
	.st27{fill:url(#SVGID_4_);}
	.st28{fill:url(#SVGID_5_);}
	.st29{fill:url(#SVGID_6_);}
	.st30{fill:url(#SVGID_7_);}
	.st31{fill:#F7F7F7;}
	.st32{fill:url(#SVGID_8_);}
	.st33{opacity:0.2;fill:#D5B885;}
	.st34{opacity:0.2;}
	.st35{fill:#D5B885;}
	.st36{fill:none;stroke:#000000;stroke-width:3;stroke-miterlimit:10;}
	.st37{clip-path:url(#SVGID_10_);fill:#040000;}
	.st38{fill:#040000;}
	.st39{display:none;}
	.st40{display:inline;fill:none;stroke:#111111;stroke-width:3;stroke-miterlimit:10;}
</style>
<g id="DFL">
</g>
<g id="Clicked">
</g>
<g id="图层_4">
</g>
<g id="my">
	<g class="st39">
		<path class="st40" d="M50.6,23.2c0,1.6-1.3,3-3,3h-23c-1.6,0-3-1.4-3-3v-12c0-1.6,1.4-3,3-3h23c1.7,0,3,1.4,3,3V23.2z"/>
	</g>
	<g>
		<g class="st6">
			<path class="st17" d="M36,19.8c-0.9,1.4-2.5,3.6-3.4,4.9L27,32.8c-0.9,1.4-2.6,1.5-3.7,0.2L23,32.8c-1.1-1.2-2.9-1.2-4,0
				l-6.7,7.3c-1.1,1.2-1.9,0.9-1.8-0.8l0.5-5c0.1-1.6-0.7-3.9-1.9-5l-6.6-6c-1.2-1.1-0.9-2.4,0.7-2.8l37.2-10.4
				c1.6-0.4,2.1,0.3,1.2,1.7L36,19.8z"/>
		</g>
		<g>
			<g>
				<path class="st7" d="M15.5,42c-0.2,0-0.3,0-0.4-0.1c-0.4-0.2-0.7-0.6-0.7-1.1l0.4-10.1c0-0.4,0.2-0.7,0.5-0.9l18.8-12.2
					c0.2-0.1,0.4-0.2,0.6-0.2c0.4,0,0.7,0.2,1,0.5c0.2,0.2,0.2,0.6,0.2,0.8c-0.1,0.3-0.2,0.5-0.5,0.7L17.1,31.4l-0.3,6.2l0,0.6
					l1.5-1.5c0.2-0.2,0.5-0.3,0.8-0.3c0.3,0,0.6,0.1,0.8,0.3c0.2,0.2,0.3,0.5,0.3,0.8c0,0.3-0.1,0.6-0.3,0.8l-3.5,3.4
					C16.1,41.9,15.8,42,15.5,42L15.5,42z M25.7,41.3c-0.3,0-0.6-0.1-0.8-0.3l-5.1-5.4c-0.2-0.2-0.3-0.5-0.3-0.8
					c0-0.3,0.1-0.6,0.3-0.8c0.2-0.2,0.5-0.3,0.8-0.3c0.3,0,0.5,0.1,0.8,0.3l4.1,4.4l17-24.7L9.3,22.9l3.8,3.6
					c0.2,0.2,0.3,0.5,0.3,0.8c0,0.3-0.1,0.6-0.3,0.8c-0.2,0.2-0.5,0.3-0.8,0.3c-0.3,0-0.6-0.1-0.8-0.3l-5.2-5C6,22.8,5.9,22.4,6,22
					c0.1-0.4,0.4-0.7,0.8-0.8l38-10.5c0.1,0,0.2,0,0.3,0c0.4,0,0.7,0.2,0.9,0.5c0.3,0.4,0.3,0.9,0,1.4L26.6,40.8
					c-0.2,0.3-0.5,0.4-0.8,0.5H25.7z M25.7,41.3"/>
			</g>
		</g>
	</g>
</g>
</svg>
