<?xml version="1.0" encoding="utf-8"?>
<!-- Generator: Adobe Illustrator 22.0.0, SVG Export Plug-In . SVG Version: 6.00 Build 0)  -->
<svg version="1.1" xmlns="http://www.w3.org/2000/svg" xmlns:xlink="http://www.w3.org/1999/xlink" x="0px" y="0px"
	 viewBox="0 0 50 50" style="enable-background:new 0 0 50 50;" xml:space="preserve">
<style type="text/css">
	.st0{fill:none;stroke:#0A0A0A;stroke-width:3;stroke-linecap:round;stroke-linejoin:round;stroke-miterlimit:10;}
	.st1{fill:#0A0A0A;}
	.st2{fill:none;stroke:#2CC7BC;stroke-width:3;stroke-linecap:round;stroke-linejoin:round;stroke-miterlimit:10;}
	.st3{fill:#2CC7BC;}
	.st4{fill:none;stroke:#111111;stroke-width:3;stroke-linecap:round;stroke-linejoin:round;stroke-miterlimit:10;}
	.st5{opacity:0.15;}
	.st6{fill:#111111;}
	.st7{opacity:0.15;fill:#2CC7BC;}
	.st8{fill:none;stroke:#111111;stroke-width:3;stroke-miterlimit:10;}
	.st9{opacity:0.15;fill:#24C3BE;}
	.st10{fill:none;stroke:#111111;stroke-width:3;stroke-linecap:round;stroke-miterlimit:10;}
	.st11{fill:none;stroke:#000000;stroke-width:3;stroke-linecap:round;stroke-miterlimit:10;}
	.st12{fill:none;stroke:#0C0C0C;stroke-width:3;stroke-linecap:round;stroke-miterlimit:10;}
	.st13{fill:#0DE2DA;}
	.st14{fill:none;stroke:#0C0C0C;stroke-width:2;stroke-miterlimit:10;}
	.st15{fill:none;stroke:#0C0C0C;stroke-width:2;stroke-miterlimit:10;stroke-dasharray:4.0534,3.04;}
	.st16{fill:#0C0C0C;}
	.st17{fill:#24C3BE;}
	.st18{fill:none;stroke:#111111;stroke-width:3;stroke-linecap:square;stroke-miterlimit:10;}
	.st19{fill:none;stroke:#111111;stroke-width:2;stroke-miterlimit:10;}
	.st20{fill:none;stroke:#111111;stroke-width:2;stroke-linecap:round;stroke-miterlimit:10;}
	.st21{fill:#1E2020;}
	.st22{fill:#4F5353;}
	.st23{fill:#B0B4B4;}
	.st24{fill:url(#SVGID_1_);}
	.st25{fill:url(#SVGID_2_);}
	.st26{fill:url(#SVGID_3_);}
	.st27{fill:url(#SVGID_4_);}
	.st28{fill:url(#SVGID_5_);}
	.st29{fill:url(#SVGID_6_);}
	.st30{fill:url(#SVGID_7_);}
	.st31{fill:#F7F7F7;}
	.st32{fill:url(#SVGID_8_);}
	.st33{opacity:0.2;fill:#D5B885;}
	.st34{opacity:0.2;}
	.st35{fill:#D5B885;}
	.st36{fill:none;stroke:#000000;stroke-width:3;stroke-miterlimit:10;}
	.st37{clip-path:url(#SVGID_10_);fill:#040000;}
	.st38{fill:#040000;}
	.st39{display:none;}
	.st40{display:inline;fill:none;stroke:#111111;stroke-width:3;stroke-miterlimit:10;}
</style>
<g id="DFL">
</g>
<g id="Clicked">
</g>
<g id="my">
	<g>
		<g class="st5">
			<path class="st3" d="M41.3,42.2c0,1.6-1.3,3-3,3H5.3c-1.6,0-3-1.4-3-3V14c0-1.6,1.4-3,3-3h32.9c1.7,0,3,1.4,3,3V42.2z"/>
		</g>
		<g>
			<path class="st4" d="M6.3,21.8c0,0,0-0.8,0-1.9s0.9-1.9,2-1.9h36c1.1,0,2,0.9,2,2v21.8c0,1.1-0.9,2-2,2h-36c-1.1,0-2-0.9-2-2v-2"
				/>
		</g>
		<g>
			<path class="st6" d="M21.9,25.2c0,0.7-0.7,1.3-1.5,1.3H6.5c-0.8,0-1.5-0.6-1.5-1.3s0.7-1.3,1.5-1.3h13.9
				C21.2,23.9,21.9,24.5,21.9,25.2z"/>
		</g>
		<g>
			<path class="st6" d="M15.7,30.5c0,0.7-0.7,1.3-1.5,1.3H6.5c-0.8,0-1.5-0.6-1.5-1.3s0.7-1.3,1.5-1.3h7.7
				C15,29.2,15.7,29.8,15.7,30.5z"/>
		</g>
		<g>
			<path class="st6" d="M12.1,35.9c0,0.7-0.7,1.3-1.5,1.3H6.5c-0.8,0-1.5-0.6-1.5-1.3s0.7-1.3,1.5-1.3h4.1
				C11.5,34.5,12.1,35.1,12.1,35.9z"/>
		</g>
		<g>
			<path class="st6" d="M36.1,29.7c0,0.7-0.7,1.3-1.5,1.3H27c-0.8,0-1.5-0.6-1.5-1.3s0.7-1.3,1.5-1.3h7.7
				C35.5,28.3,36.1,28.9,36.1,29.7z"/>
		</g>
		<g>
			<path class="st6" d="M37.8,30.4c-0.5,0.5-1.4,0.5-2-0.1L32.5,27c-0.6-0.6-0.6-1.5-0.1-2c0.5-0.5,1.4-0.5,2,0.1l3.3,3.3
				C38.2,29,38.3,29.9,37.8,30.4z"/>
		</g>
		<g>
			<path class="st6" d="M37.8,28.5c0.5,0.5,0.5,1.4-0.1,2l-3.3,3.3c-0.6,0.6-1.5,0.6-2,0.1c-0.5-0.5-0.5-1.4,0.1-2l3.3-3.3
				C36.3,28.1,37.2,28,37.8,28.5z"/>
		</g>
		<g>
			<path class="st4" d="M6.3,19.4l6.1-10.7c0.5-1,1.9-1.7,3-1.7h21.8c1.1,0,2.4,0.8,3,1.7l6.1,10.7"/>
		</g>
	</g>
</g>
<g id="图层_4">
</g>
</svg>
