<?xml version="1.0" encoding="utf-8"?>
<!-- Generator: Adobe Illustrator 22.0.0, SVG Export Plug-In . SVG Version: 6.00 Build 0)  -->
<svg version="1.1" xmlns="http://www.w3.org/2000/svg" xmlns:xlink="http://www.w3.org/1999/xlink" x="0px" y="0px"
	 viewBox="0 0 64 64" style="enable-background:new 0 0 64 64;" xml:space="preserve">
<style type="text/css">
	.st0{fill:none;stroke:#0A0A0A;stroke-width:3;stroke-linecap:round;stroke-linejoin:round;stroke-miterlimit:10;}
	.st1{fill:#0A0A0A;}
	.st2{fill:none;stroke:#2CC7BC;stroke-width:3;stroke-linecap:round;stroke-linejoin:round;stroke-miterlimit:10;}
	.st3{fill:#2CC7BC;}
	.st4{fill:none;stroke:#111111;stroke-width:3;stroke-linecap:round;stroke-linejoin:round;stroke-miterlimit:10;}
	.st5{opacity:0.15;}
	.st6{fill:#111111;}
	.st7{opacity:0.15;fill:#2CC7BC;}
	.st8{fill:none;stroke:#111111;stroke-width:3;stroke-miterlimit:10;}
	.st9{opacity:0.15;fill:#24C3BE;}
	.st10{fill:none;stroke:#111111;stroke-width:3;stroke-linecap:round;stroke-miterlimit:10;}
	.st11{fill:none;stroke:#000000;stroke-width:3;stroke-linecap:round;stroke-miterlimit:10;}
	.st12{fill:none;stroke:#0C0C0C;stroke-width:3;stroke-linecap:round;stroke-miterlimit:10;}
	.st13{fill:#0DE2DA;}
	.st14{fill:none;stroke:#0C0C0C;stroke-width:2;stroke-miterlimit:10;}
	.st15{fill:none;stroke:#0C0C0C;stroke-width:2;stroke-miterlimit:10;stroke-dasharray:4.0534,3.04;}
	.st16{fill:#0C0C0C;}
	.st17{fill:#24C3BE;}
	.st18{fill:none;stroke:#111111;stroke-width:3;stroke-linecap:square;stroke-miterlimit:10;}
	.st19{fill:none;stroke:#111111;stroke-width:2;stroke-miterlimit:10;}
	.st20{fill:none;stroke:#111111;stroke-width:2;stroke-linecap:round;stroke-miterlimit:10;}
	.st21{fill:#1E2020;}
	.st22{fill:#4F5353;}
	.st23{fill:#B0B4B4;}
	.st24{fill:url(#SVGID_1_);}
	.st25{fill:url(#SVGID_2_);}
	.st26{fill:url(#SVGID_3_);}
	.st27{fill:url(#SVGID_4_);}
	.st28{fill:url(#SVGID_5_);}
	.st29{fill:url(#SVGID_6_);}
	.st30{fill:url(#SVGID_7_);}
	.st31{fill:url(#SVGID_8_);}
	.st32{fill:url(#SVGID_9_);}
	.st33{fill:url(#SVGID_10_);}
	.st34{fill:#F7F7F7;}
	.st35{fill:url(#SVGID_11_);}
	.st36{fill:url(#SVGID_12_);}
	.st37{opacity:0.2;fill:#D5B885;}
	.st38{opacity:0.2;}
	.st39{fill:#D5B885;}
	.st40{fill:none;stroke:#000000;stroke-width:3;stroke-miterlimit:10;}
	.st41{clip-path:url(#SVGID_14_);fill:#040000;}
	.st42{fill:#040000;}
	.st43{display:none;}
	.st44{display:inline;fill:none;stroke:#111111;stroke-width:3;stroke-miterlimit:10;}
</style>
<g id="DFL">
</g>
<g id="Clicked">
</g>
<g id="my">
	<g>
		<path class="st37" d="M42.9,47.8H8.3c-1.7,0-3-1.3-3-3V22.7c0-1.7,1.3-3,3-3h34.6c1.6,0,3,1.3,3,3v22.1
			C45.9,46.4,44.6,47.8,42.9,47.8z"/>
		<path class="st8" d="M49.7,48.9H15c-1.7,0-3-1.3-3-3V26.4c0-1.6,1.3-3,3-3h34.6c1.7,0,3,1.4,3,3v19.5
			C52.7,47.5,51.3,48.9,49.7,48.9z"/>
		<path class="st6" d="M57.2,50.5H7.5C6.7,50.5,6,49.8,6,49v-0.3c0-0.8,0.7-1.5,1.5-1.5h49.7c0.8,0,1.5,0.7,1.5,1.5V49
			C58.7,49.8,58,50.5,57.2,50.5z"/>
		<path class="st6" d="M52.2,33.8H12.5c-0.5,0-1-0.4-1-1v-0.2c0-0.5,0.4-1,1-1h39.7c0.5,0,1,0.5,1,1v0.2
			C53.2,33.4,52.8,33.8,52.2,33.8z"/>
		<g>
			<path class="st6" d="M19.7,21.9V15c0-0.8,0.7-1.5,1.5-1.5h0.3c0.8,0,1.5,0.7,1.5,1.5v6.9c0,0.8-0.7,1.5-1.5,1.5h-0.3
				C20.4,23.4,19.7,22.7,19.7,21.9z"/>
			<path class="st6" d="M30.7,21.9V15c0-0.8,0.7-1.5,1.5-1.5h0.3c0.8,0,1.5,0.7,1.5,1.5v6.9c0,0.8-0.7,1.5-1.5,1.5h-0.3
				C31.4,23.4,30.7,22.7,30.7,21.9z"/>
			<path class="st6" d="M41.7,21.9V15c0-0.8,0.7-1.5,1.5-1.5h0.3c0.8,0,1.5,0.7,1.5,1.5v6.9c0,0.8-0.7,1.5-1.5,1.5h-0.3
				C42.4,23.4,41.7,22.7,41.7,21.9z"/>
		</g>
	</g>
</g>
<g id="图层_4">
</g>
</svg>
