<?xml version="1.0" encoding="utf-8"?>
<!-- Generator: Adobe Illustrator 22.0.0, SVG Export Plug-In . SVG Version: 6.00 Build 0)  -->
<svg version="1.1" xmlns="http://www.w3.org/2000/svg" xmlns:xlink="http://www.w3.org/1999/xlink" x="0px" y="0px"
	 viewBox="0 0 120 120" style="enable-background:new 0 0 120 120;" xml:space="preserve">
<style type="text/css">
	.st0{fill:none;stroke:#0A0A0A;stroke-width:3;stroke-linecap:round;stroke-linejoin:round;stroke-miterlimit:10;}
	.st1{fill:#0A0A0A;}
	.st2{fill:none;stroke:#2CC7BC;stroke-width:3;stroke-linecap:round;stroke-linejoin:round;stroke-miterlimit:10;}
	.st3{fill:#2CC7BC;}
	.st4{fill:none;stroke:#111111;stroke-width:3;stroke-linecap:round;stroke-linejoin:round;stroke-miterlimit:10;}
	.st5{opacity:0.15;}
	.st6{fill:#111111;}
	.st7{opacity:0.15;fill:#2CC7BC;}
	.st8{fill:none;stroke:#111111;stroke-width:3;stroke-miterlimit:10;}
	.st9{opacity:0.15;fill:#24C3BE;}
	.st10{fill:none;stroke:#111111;stroke-width:3;stroke-linecap:round;stroke-miterlimit:10;}
	.st11{fill:none;stroke:#000000;stroke-width:3;stroke-linecap:round;stroke-miterlimit:10;}
	.st12{fill:none;stroke:#0C0C0C;stroke-width:3;stroke-linecap:round;stroke-miterlimit:10;}
	.st13{fill:#0DE2DA;}
	.st14{fill:none;stroke:#0C0C0C;stroke-width:2;stroke-miterlimit:10;}
	.st15{fill:none;stroke:#0C0C0C;stroke-width:2;stroke-miterlimit:10;stroke-dasharray:4.0534,3.04;}
	.st16{fill:#0C0C0C;}
	.st17{fill:#24C3BE;}
	.st18{fill:none;stroke:#111111;stroke-width:3;stroke-linecap:square;stroke-miterlimit:10;}
	.st19{fill:none;stroke:#111111;stroke-width:2;stroke-miterlimit:10;}
	.st20{fill:none;stroke:#111111;stroke-width:2;stroke-linecap:round;stroke-miterlimit:10;}
	.st21{fill:#1E2020;}
	.st22{fill:#4F5353;}
	.st23{fill:#B0B4B4;}
	.st24{fill:url(#SVGID_1_);}
	.st25{fill:url(#SVGID_2_);}
	.st26{fill:url(#SVGID_3_);}
	.st27{fill:url(#SVGID_4_);}
	.st28{fill:url(#SVGID_5_);}
	.st29{fill:url(#SVGID_6_);}
	.st30{fill:url(#SVGID_7_);}
	.st31{fill:url(#SVGID_8_);}
	.st32{fill:url(#SVGID_9_);}
	.st33{fill:url(#SVGID_10_);}
	.st34{fill:#F7F7F7;}
	.st35{fill:url(#SVGID_11_);}
	.st36{fill:url(#SVGID_12_);}
	.st37{opacity:0.2;fill:#D5B885;}
	.st38{opacity:0.2;}
	.st39{fill:#D5B885;}
	.st40{fill:none;stroke:#000000;stroke-width:3;stroke-miterlimit:10;}
	.st41{clip-path:url(#SVGID_14_);fill:#040000;}
	.st42{fill:#040000;}
	.st43{display:none;}
	.st44{display:inline;fill:none;stroke:#111111;stroke-width:3;stroke-miterlimit:10;}
</style>
<g id="DFL">
</g>
<g id="Clicked">
</g>
<g id="my">
	<g>
		<g>
			<linearGradient id="SVGID_1_" gradientUnits="userSpaceOnUse" x1="60" y1="110.5" x2="60" y2="9.5">
				<stop  offset="0" style="stop-color:#505555"/>
				<stop  offset="0.9966" style="stop-color:#FEFEFE"/>
			</linearGradient>
			<circle class="st24" cx="60" cy="60" r="50.5"/>
		</g>
	</g>
	<g>
		<g>
			<g>
				<linearGradient id="SVGID_2_" gradientUnits="userSpaceOnUse" x1="60.0993" y1="85.313" x2="60.0993" y2="46.0144">
					<stop  offset="2.198958e-03" style="stop-color:#A7A5A6"/>
					<stop  offset="4.881630e-02" style="stop-color:#ACAAAB"/>
					<stop  offset="0.4692" style="stop-color:#D4D3D4"/>
					<stop  offset="0.8006" style="stop-color:#EDEDED"/>
					<stop  offset="1" style="stop-color:#F6F6F6"/>
				</linearGradient>
				<path class="st25" d="M60.1,46c-10.9,0-19.6,8.8-19.6,19.6c0,10.9,8.8,19.6,19.6,19.6s19.6-8.8,19.6-19.6
					C79.7,54.8,71,46,60.1,46L60.1,46z M70.2,63.9l-3.9,3.8l0.9,5.3c0.3,1.8-0.7,2.6-2.4,1.7l-4.8-2.5l-4.8,2.5
					c-1.6,0.8-2.7,0.1-2.4-1.7l0.9-5.3L50,63.9c-1.3-1.3-0.9-2.5,0.9-2.8l5.4-0.8l2.4-4.9c0.8-1.6,2.1-1.7,2.9,0l2.4,4.9l5.4,0.8
					C71.1,61.4,71.5,62.6,70.2,63.9L70.2,63.9z M70.2,63.9"/>
				<path class="st34" d="M78.5,34.7H66.3c-0.7,0-1.2,0.5-1.3,1.1l-3.7,7.4c0,0,8,0.5,12.8,5l5.6-11.3c0.2-0.2,0.3-0.5,0.3-0.8
					C79.9,35.3,79.2,34.7,78.5,34.7L78.5,34.7z M78.5,34.7"/>
				<path class="st34" d="M58.8,43.1L55,35.8c-0.2-0.6-0.7-1.1-1.3-1.1H41.5c-0.8,0-1.4,0.6-1.4,1.4c0,0.3,0.1,0.6,0.3,0.8L46,48.2
					C50.7,43.6,58.8,43.1,58.8,43.1L58.8,43.1z M58.8,43.1"/>
			</g>
		</g>
	</g>
</g>
<g id="图层_4">
</g>
</svg>
