<?xml version="1.0" encoding="utf-8"?>
<!-- Generator: Adobe Illustrator 22.0.0, SVG Export Plug-In . SVG Version: 6.00 Build 0)  -->
<svg version="1.1" xmlns="http://www.w3.org/2000/svg" xmlns:xlink="http://www.w3.org/1999/xlink" x="0px" y="0px"
	 viewBox="0 0 50 50.5" style="enable-background:new 0 0 50 50.5;" xml:space="preserve">
<style type="text/css">
	.st0{fill:none;stroke:#0A0A0A;stroke-width:3;stroke-linecap:round;stroke-linejoin:round;stroke-miterlimit:10;}
	.st1{fill:#0A0A0A;}
	.st2{fill:none;stroke:#2CC7BC;stroke-width:3;stroke-linecap:round;stroke-linejoin:round;stroke-miterlimit:10;}
	.st3{fill:#2CC7BC;}
	.st4{fill:none;stroke:#111111;stroke-width:3;stroke-linecap:round;stroke-linejoin:round;stroke-miterlimit:10;}
	.st5{opacity:0.15;}
	.st6{fill:#111111;}
	.st7{opacity:0.15;fill:#2CC7BC;}
	.st8{fill:none;stroke:#111111;stroke-width:3;stroke-miterlimit:10;}
	.st9{opacity:0.15;fill:#24C3BE;}
	.st10{fill:none;stroke:#111111;stroke-width:3;stroke-linecap:round;stroke-miterlimit:10;}
	.st11{fill:none;stroke:#000000;stroke-width:3;stroke-linecap:round;stroke-miterlimit:10;}
	.st12{fill:none;stroke:#0C0C0C;stroke-width:3;stroke-linecap:round;stroke-miterlimit:10;}
	.st13{fill:#0DE2DA;}
	.st14{fill:none;stroke:#0C0C0C;stroke-width:2;stroke-miterlimit:10;}
	.st15{fill:none;stroke:#0C0C0C;stroke-width:2;stroke-miterlimit:10;stroke-dasharray:4.0534,3.04;}
	.st16{fill:#0C0C0C;}
	.st17{fill:#24C3BE;}
	.st18{fill:none;stroke:#111111;stroke-width:3;stroke-linecap:square;stroke-miterlimit:10;}
	.st19{fill:none;stroke:#111111;stroke-width:2;stroke-miterlimit:10;}
	.st20{fill:none;stroke:#111111;stroke-width:2;stroke-linecap:round;stroke-miterlimit:10;}
	.st21{fill:#1E2020;}
	.st22{fill:#4F5353;}
	.st23{fill:#B0B4B4;}
	.st24{fill:url(#SVGID_1_);}
	.st25{fill:url(#SVGID_2_);}
	.st26{fill:url(#SVGID_3_);}
	.st27{fill:url(#SVGID_4_);}
	.st28{fill:url(#SVGID_5_);}
	.st29{fill:url(#SVGID_6_);}
	.st30{fill:url(#SVGID_7_);}
	.st31{fill:#F7F7F7;}
	.st32{fill:url(#SVGID_8_);}
	.st33{opacity:0.2;fill:#D5B885;}
	.st34{opacity:0.2;}
	.st35{fill:#D5B885;}
	.st36{fill:none;stroke:#000000;stroke-width:3;stroke-miterlimit:10;}
	.st37{clip-path:url(#SVGID_10_);fill:#040000;}
	.st38{fill:#040000;}
	.st39{display:none;}
	.st40{display:inline;fill:none;stroke:#111111;stroke-width:3;stroke-miterlimit:10;}
</style>
<g id="DFL">
</g>
<g id="Clicked">
</g>
<g id="my">
	<g>
		<g>
			<g class="st5">
				<path class="st13" d="M42.1,36.7c0,2.2-1.8,4-4,4H5.4c-2.2,0-4-1.8-4-4V17.5c0-2.2,1.8-4,4-4h32.7c2.2,0,4,1.8,4,4V36.7z"/>
			</g>
			<g>
				<path class="st8" d="M47.1,36.8c0,2.2-1.8,4-4,4h-34c-2.2,0-4-1.8-4-4V14.2c0-2.2,1.8-4,4-4h34c2.2,0,4,1.8,4,4V36.8z"/>
			</g>
			<g>
				<g>
					<line class="st14" x1="13.4" y1="11.5" x2="13.4" y2="13.5"/>
					<line class="st15" x1="13.4" y1="16.6" x2="13.4" y2="36.3"/>
					<line class="st14" x1="13.4" y1="37.8" x2="13.4" y2="39.8"/>
				</g>
			</g>
			<path class="st6" d="M36.1,25.8H23.5c-0.6,0-1-0.4-1-1v-0.1c0-0.5,0.4-1,1-1h12.6c0.5,0,1,0.4,1,1v0.1
				C37.1,25.4,36.7,25.8,36.1,25.8z"/>
			<path class="st6" d="M36.1,30.8H23.5c-0.6,0-1-0.4-1-1v-0.1c0-0.5,0.4-1,1-1h12.6c0.5,0,1,0.4,1,1v0.1
				C37.1,30.3,36.7,30.8,36.1,30.8z"/>
			<path class="st6" d="M28.9,35.2v-10c0-0.5,0.4-1,1-1h0c0.5,0,1,0.4,1,1v10c0,0.5-0.4,1-1,1h0C29.3,36.2,28.9,35.8,28.9,35.2z"/>
		</g>
		<g>
			<path class="st6" d="M29.1,24.6l-4.9-4.8c-0.4-0.4-0.4-1.1,0-1.5l0,0c0.4-0.4,1.1-0.4,1.5,0l4.9,4.8c0.4,0.4,0.4,1.1,0,1.5l0,0
				C30.1,25,29.5,25,29.1,24.6z"/>
			<path class="st6" d="M29.1,23.1l4.9-4.8c0.4-0.4,1.1-0.4,1.5,0v0c0.4,0.4,0.4,1.1,0,1.5l-4.9,4.8c-0.4,0.4-1.1,0.4-1.5,0l0,0
				C28.7,24.2,28.7,23.5,29.1,23.1z"/>
		</g>
	</g>
</g>
<g id="图层_4">
</g>
</svg>
