<?xml version="1.0" encoding="utf-8"?>
<!-- Generator: Adobe Illustrator 22.0.0, SVG Export Plug-In . SVG Version: 6.00 Build 0)  -->
<svg version="1.1" xmlns="http://www.w3.org/2000/svg" xmlns:xlink="http://www.w3.org/1999/xlink" x="0px" y="0px"
	 viewBox="0 0 50 50.5" style="enable-background:new 0 0 50 50.5;" xml:space="preserve">
<style type="text/css">
	.st0{fill:none;stroke:#0A0A0A;stroke-width:3;stroke-linecap:round;stroke-linejoin:round;stroke-miterlimit:10;}
	.st1{fill:#0A0A0A;}
	.st2{fill:none;stroke:#2CC7BC;stroke-width:3;stroke-linecap:round;stroke-linejoin:round;stroke-miterlimit:10;}
	.st3{fill:#2CC7BC;}
	.st4{fill:none;stroke:#111111;stroke-width:3;stroke-linecap:round;stroke-linejoin:round;stroke-miterlimit:10;}
	.st5{opacity:0.15;}
	.st6{fill:#111111;}
	.st7{opacity:0.15;fill:#2CC7BC;}
	.st8{fill:none;stroke:#111111;stroke-width:3;stroke-miterlimit:10;}
	.st9{opacity:0.15;fill:#24C3BE;}
	.st10{fill:none;stroke:#111111;stroke-width:3;stroke-linecap:round;stroke-miterlimit:10;}
	.st11{fill:none;stroke:#000000;stroke-width:3;stroke-linecap:round;stroke-miterlimit:10;}
	.st12{fill:none;stroke:#0C0C0C;stroke-width:3;stroke-linecap:round;stroke-miterlimit:10;}
	.st13{fill:#0DE2DA;}
	.st14{fill:none;stroke:#0C0C0C;stroke-width:2;stroke-miterlimit:10;}
	.st15{fill:none;stroke:#0C0C0C;stroke-width:2;stroke-miterlimit:10;stroke-dasharray:4.0534,3.04;}
	.st16{fill:#0C0C0C;}
	.st17{fill:#24C3BE;}
	.st18{fill:none;stroke:#111111;stroke-width:3;stroke-linecap:square;stroke-miterlimit:10;}
	.st19{fill:none;stroke:#111111;stroke-width:2;stroke-miterlimit:10;}
	.st20{fill:none;stroke:#111111;stroke-width:2;stroke-linecap:round;stroke-miterlimit:10;}
	.st21{fill:#1E2020;}
	.st22{fill:#4F5353;}
	.st23{fill:#B0B4B4;}
	.st24{fill:url(#SVGID_1_);}
	.st25{fill:url(#SVGID_2_);}
	.st26{fill:url(#SVGID_3_);}
	.st27{fill:url(#SVGID_4_);}
	.st28{fill:url(#SVGID_5_);}
	.st29{fill:url(#SVGID_6_);}
	.st30{fill:url(#SVGID_7_);}
	.st31{fill:#F7F7F7;}
	.st32{fill:url(#SVGID_8_);}
	.st33{opacity:0.2;fill:#D5B885;}
	.st34{opacity:0.2;}
	.st35{fill:#D5B885;}
	.st36{fill:none;stroke:#000000;stroke-width:3;stroke-miterlimit:10;}
	.st37{clip-path:url(#SVGID_10_);fill:#040000;}
	.st38{fill:#040000;}
	.st39{display:none;}
	.st40{display:inline;fill:none;stroke:#111111;stroke-width:3;stroke-miterlimit:10;}
</style>
<g id="DFL">
</g>
<g id="Clicked">
</g>
<g id="my">
	<g>
		<g>
			<path class="st7" d="M42.3,27.9c0,10.7-8.7,19.4-19.4,19.4c-2.9,0-5.7-0.6-8.2-1.8c-1.5-0.7-3.4-1.9-4.6-2.9
				c-1.1-0.9-1.7-1.7-2.6-2.8c-2.5-3.3-4-7.4-4-11.8c0-10.7,8.7-19.4,19.4-19.4S42.3,17.1,42.3,27.9z"/>
			<path class="st10" d="M3.4,22.8C4.6,11.9,13.8,3.5,24.9,3.5c11.1,0,20.2,8.4,21.5,19.1"/>
			<path class="st10" d="M3.4,28.3c1.2,10.8,10.4,19.2,21.5,19.2c11.1,0,20.2-8.4,21.5-19.1"/>
			<line class="st10" x1="3.6" y1="22.6" x2="7.9" y2="18.4"/>
			<line class="st10" x1="46.2" y1="28.5" x2="41.9" y2="32.7"/>
		</g>
		<path class="st6" d="M31.2,25.7H18.6c-0.5,0-1-0.4-1-1v-0.1c0-0.5,0.4-1,1-1h12.6c0.5,0,1,0.5,1,1v0.1
			C32.2,25.3,31.8,25.7,31.2,25.7z"/>
		<path class="st6" d="M31.2,30.7H18.6c-0.5,0-1-0.4-1-1v-0.1c0-0.6,0.4-1,1-1h12.6c0.5,0,1,0.4,1,1v0.1
			C32.2,30.2,31.8,30.7,31.2,30.7z"/>
		<path class="st6" d="M24,35.1v-9.9c0-0.5,0.4-1,1-1h0c0.5,0,1,0.4,1,1v9.9c0,0.5-0.4,1-1,1h0C24.4,36.1,24,35.6,24,35.1z"/>
		<g>
			<path class="st16" d="M24.2,24.5l-4.9-4.8c-0.4-0.4-0.4-1.1,0-1.5l0,0c0.4-0.4,1.1-0.4,1.5,0l4.9,4.8c0.4,0.4,0.4,1.1,0,1.5l0,0
				C25.2,24.9,24.6,24.9,24.2,24.5z"/>
			<path class="st16" d="M24.2,23l4.9-4.8c0.4-0.4,1.1-0.4,1.5,0l0,0c0.4,0.4,0.4,1.1,0,1.5l-4.9,4.8c-0.4,0.4-1.1,0.4-1.5,0v0
				C23.8,24.1,23.8,23.4,24.2,23z"/>
		</g>
	</g>
</g>
<g id="图层_4">
</g>
</svg>
