<?xml version="1.0" encoding="utf-8"?>
<!-- Generator: Adobe Illustrator 22.0.0, SVG Export Plug-In . SVG Version: 6.00 Build 0)  -->
<svg version="1.1" xmlns="http://www.w3.org/2000/svg" xmlns:xlink="http://www.w3.org/1999/xlink" x="0px" y="0px"
	 viewBox="0 0 50 50.5" style="enable-background:new 0 0 50 50.5;" xml:space="preserve">
<style type="text/css">
	.st0{fill:none;stroke:#0A0A0A;stroke-width:3;stroke-linecap:round;stroke-linejoin:round;stroke-miterlimit:10;}
	.st1{fill:#0A0A0A;}
	.st2{fill:none;stroke:#2CC7BC;stroke-width:3;stroke-linecap:round;stroke-linejoin:round;stroke-miterlimit:10;}
	.st3{fill:#2CC7BC;}
	.st4{fill:none;stroke:#111111;stroke-width:3;stroke-linecap:round;stroke-linejoin:round;stroke-miterlimit:10;}
	.st5{opacity:0.15;}
	.st6{fill:#111111;}
	.st7{opacity:0.15;fill:#2CC7BC;}
	.st8{fill:none;stroke:#111111;stroke-width:3;stroke-miterlimit:10;}
	.st9{opacity:0.15;fill:#24C3BE;}
	.st10{fill:none;stroke:#111111;stroke-width:3;stroke-linecap:round;stroke-miterlimit:10;}
	.st11{fill:none;stroke:#000000;stroke-width:3;stroke-linecap:round;stroke-miterlimit:10;}
	.st12{fill:none;stroke:#0C0C0C;stroke-width:3;stroke-linecap:round;stroke-miterlimit:10;}
	.st13{fill:#0DE2DA;}
	.st14{fill:none;stroke:#0C0C0C;stroke-width:2;stroke-miterlimit:10;}
	.st15{fill:none;stroke:#0C0C0C;stroke-width:2;stroke-miterlimit:10;stroke-dasharray:4.0534,3.04;}
	.st16{fill:#0C0C0C;}
	.st17{fill:#24C3BE;}
	.st18{fill:none;stroke:#111111;stroke-width:3;stroke-linecap:square;stroke-miterlimit:10;}
	.st19{fill:none;stroke:#111111;stroke-width:2;stroke-miterlimit:10;}
	.st20{fill:none;stroke:#111111;stroke-width:2;stroke-linecap:round;stroke-miterlimit:10;}
	.st21{fill:#1E2020;}
	.st22{fill:#4F5353;}
	.st23{fill:#B0B4B4;}
	.st24{fill:url(#SVGID_1_);}
	.st25{fill:url(#SVGID_2_);}
	.st26{fill:url(#SVGID_3_);}
	.st27{fill:url(#SVGID_4_);}
	.st28{fill:url(#SVGID_5_);}
	.st29{fill:url(#SVGID_6_);}
	.st30{fill:url(#SVGID_7_);}
	.st31{fill:#F7F7F7;}
	.st32{fill:url(#SVGID_8_);}
	.st33{opacity:0.2;fill:#D5B885;}
	.st34{opacity:0.2;}
	.st35{fill:#D5B885;}
	.st36{fill:none;stroke:#000000;stroke-width:3;stroke-miterlimit:10;}
	.st37{clip-path:url(#SVGID_10_);fill:#040000;}
	.st38{fill:#040000;}
	.st39{display:none;}
	.st40{display:inline;fill:none;stroke:#111111;stroke-width:3;stroke-miterlimit:10;}
</style>
<g id="DFL">
</g>
<g id="Clicked">
</g>
<g id="my">
	<g>
		<path class="st9" d="M21.8,18.8l5.8-4.9c0,0,14.4-4.9,12.5,8.7c0,0-0.7,7.7-16.7,20.6l-10.2-8.7l-9.3-9.3c0,0-4.7-9,5.4-14.2
			c0,0,6.2-2.1,9.6,2.9C22,18.4,21.8,18.8,21.8,18.8z"/>
		<path class="st10" d="M23.9,17.6l5.5-5.5c3.9-3.9,10.2-3.9,14,0l0.4,0.4c3.9,3.9,3.9,10.2,0,14L25.6,44.8"/>
		<path class="st10" d="M25.5,44.8L6.2,25.5C2.5,21.8,2.5,15.8,6.2,12l0.4-0.4c3.7-3.7,9.8-3.8,13.4-0.1"/>
	</g>
</g>
<g id="图层_4">
</g>
</svg>
