<?xml version="1.0" encoding="utf-8"?>
<!-- Generator: Adobe Illustrator 22.0.0, SVG Export Plug-In . SVG Version: 6.00 Build 0)  -->
<svg version="1.1" xmlns="http://www.w3.org/2000/svg" xmlns:xlink="http://www.w3.org/1999/xlink" x="0px" y="0px"
	 viewBox="0 0 64 64" style="enable-background:new 0 0 64 64;" xml:space="preserve">
<style type="text/css">
	.st0{fill:none;stroke:#0A0A0A;stroke-width:3;stroke-linecap:round;stroke-linejoin:round;stroke-miterlimit:10;}
	.st1{fill:#0A0A0A;}
	.st2{fill:none;stroke:#2CC7BC;stroke-width:3;stroke-linecap:round;stroke-linejoin:round;stroke-miterlimit:10;}
	.st3{fill:#2CC7BC;}
	.st4{fill:none;stroke:#111111;stroke-width:3;stroke-linecap:round;stroke-linejoin:round;stroke-miterlimit:10;}
	.st5{opacity:0.15;}
	.st6{fill:#111111;}
	.st7{opacity:0.15;fill:#2CC7BC;}
	.st8{fill:none;stroke:#111111;stroke-width:3;stroke-miterlimit:10;}
	.st9{opacity:0.15;fill:#24C3BE;}
	.st10{fill:none;stroke:#111111;stroke-width:3;stroke-linecap:round;stroke-miterlimit:10;}
	.st11{fill:none;stroke:#000000;stroke-width:3;stroke-linecap:round;stroke-miterlimit:10;}
	.st12{fill:none;stroke:#0C0C0C;stroke-width:3;stroke-linecap:round;stroke-miterlimit:10;}
	.st13{fill:#0DE2DA;}
	.st14{fill:none;stroke:#0C0C0C;stroke-width:2;stroke-miterlimit:10;}
	.st15{fill:none;stroke:#0C0C0C;stroke-width:2;stroke-miterlimit:10;stroke-dasharray:4.0534,3.04;}
	.st16{fill:#0C0C0C;}
	.st17{fill:#24C3BE;}
	.st18{fill:none;stroke:#111111;stroke-width:3;stroke-linecap:square;stroke-miterlimit:10;}
	.st19{fill:none;stroke:#111111;stroke-width:2;stroke-miterlimit:10;}
	.st20{fill:none;stroke:#111111;stroke-width:2;stroke-linecap:round;stroke-miterlimit:10;}
	.st21{fill:#1E2020;}
	.st22{fill:#4F5353;}
	.st23{fill:#B0B4B4;}
	.st24{fill:url(#SVGID_1_);}
	.st25{fill:url(#SVGID_2_);}
	.st26{fill:url(#SVGID_3_);}
	.st27{fill:url(#SVGID_4_);}
	.st28{fill:url(#SVGID_5_);}
	.st29{fill:url(#SVGID_6_);}
	.st30{fill:url(#SVGID_7_);}
	.st31{fill:url(#SVGID_8_);}
	.st32{fill:url(#SVGID_9_);}
	.st33{fill:url(#SVGID_10_);}
	.st34{fill:#F7F7F7;}
	.st35{fill:url(#SVGID_11_);}
	.st36{fill:url(#SVGID_12_);}
	.st37{opacity:0.2;fill:#D5B885;}
	.st38{opacity:0.2;}
	.st39{fill:#D5B885;}
	.st40{fill:none;stroke:#000000;stroke-width:3;stroke-miterlimit:10;}
	.st41{clip-path:url(#SVGID_14_);fill:#040000;}
	.st42{fill:#040000;}
	.st43{display:none;}
	.st44{display:inline;fill:none;stroke:#111111;stroke-width:3;stroke-miterlimit:10;}
</style>
<g id="DFL">
</g>
<g id="Clicked">
</g>
<g id="my">
	<g>
		<path class="st37" d="M50.8,49h-44c-1.7,0-3-1.3-3-3V18c0-1.6,1.3-3,3-3h44c1.7,0,3,1.4,3,3v28C53.8,47.7,52.4,49,50.8,49z"/>
		<g>
			<path class="st4" d="M34.8,48.5H12.3c-1.6,0-3-1.3-3-3v-28c0-1.6,1.4-3,3-3h44c1.7,0,3,1.4,3,3v8.8"/>
		</g>
		<rect x="9.3" y="21.5" class="st6" width="50" height="2"/>
		<g>
			<circle class="st8" cx="50" cy="41.3" r="10.3"/>
			<path class="st6" d="M49.3,43.5L49.3,43.5c-0.5,0-1-0.5-1-1v-5c0-0.5,0.5-1,1-1l0,0c0.5,0,1,0.5,1,1v5
				C50.3,43,49.8,43.5,49.3,43.5z"/>
			<path class="st6" d="M48.3,42.5L48.3,42.5c0-0.5,0.5-1,1-1h3c0.5,0,1,0.5,1,1l0,0c0,0.5-0.5,1-1,1h-3
				C48.7,43.5,48.3,43,48.3,42.5z"/>
		</g>
	</g>
</g>
<g id="图层_4">
</g>
</svg>
