<?xml version="1.0" encoding="utf-8"?>
<!-- Generator: Adobe Illustrator 22.0.0, SVG Export Plug-In . SVG Version: 6.00 Build 0)  -->
<svg version="1.1" xmlns="http://www.w3.org/2000/svg" xmlns:xlink="http://www.w3.org/1999/xlink" x="0px" y="0px"
	 viewBox="0 0 125 40" style="enable-background:new 0 0 125 40;" xml:space="preserve">
<style type="text/css">
	.st0{fill:none;stroke:#0A0A0A;stroke-width:3;stroke-linecap:round;stroke-linejoin:round;stroke-miterlimit:10;}
	.st1{fill:#0A0A0A;}
	.st2{fill:none;stroke:#2CC7BC;stroke-width:3;stroke-linecap:round;stroke-linejoin:round;stroke-miterlimit:10;}
	.st3{fill:#2CC7BC;}
	.st4{fill:none;stroke:#111111;stroke-width:3;stroke-miterlimit:10;}
	.st5{fill:none;stroke:#111111;stroke-width:3;stroke-linecap:round;stroke-linejoin:round;stroke-miterlimit:10;}
	.st6{opacity:0.15;}
	.st7{fill:#111111;}
	.st8{opacity:0.15;fill:#2CC7BC;}
	.st9{opacity:0.15;fill:#24C3BE;}
	.st10{fill:none;stroke:#111111;stroke-width:3;stroke-linecap:round;stroke-miterlimit:10;}
	.st11{fill:none;stroke:#000000;stroke-width:3;stroke-linecap:round;stroke-miterlimit:10;}
	.st12{fill:none;stroke:#0C0C0C;stroke-width:3;stroke-linecap:round;stroke-miterlimit:10;}
	.st13{fill:#0DE2DA;}
	.st14{fill:none;stroke:#0C0C0C;stroke-width:2;stroke-miterlimit:10;}
	.st15{fill:none;stroke:#0C0C0C;stroke-width:2;stroke-miterlimit:10;stroke-dasharray:4.0534,3.04;}
	.st16{fill:#0C0C0C;}
	.st17{fill:#24C3BE;}
	.st18{fill:none;stroke:#111111;stroke-width:3;stroke-linecap:square;stroke-miterlimit:10;}
	.st19{fill:none;stroke:#111111;stroke-width:2;stroke-miterlimit:10;}
	.st20{fill:none;stroke:#111111;stroke-width:2;stroke-linecap:round;stroke-miterlimit:10;}
	.st21{fill:#1E2020;}
	.st22{fill:#4F5353;}
	.st23{fill:#B0B4B4;}
	.st24{fill:url(#SVGID_1_);}
	.st25{fill:url(#SVGID_2_);}
	.st26{fill:url(#SVGID_3_);}
	.st27{fill:url(#SVGID_4_);}
	.st28{fill:url(#SVGID_5_);}
	.st29{fill:url(#SVGID_6_);}
	.st30{fill:url(#SVGID_7_);}
	.st31{fill:url(#SVGID_8_);}
	.st32{fill:url(#SVGID_9_);}
	.st33{fill:url(#SVGID_10_);}
	.st34{fill:url(#SVGID_11_);}
	.st35{fill:url(#SVGID_12_);}
	.st36{fill:url(#SVGID_13_);}
	.st37{fill:url(#SVGID_14_);}
	.st38{fill:url(#SVGID_15_);}
	.st39{fill:url(#SVGID_16_);}
	.st40{opacity:0.2;fill:#D5B885;}
	.st41{opacity:0.2;}
	.st42{fill:#D5B885;}
	.st43{fill:none;stroke:#000000;stroke-width:3;stroke-miterlimit:10;}
	.st44{clip-path:url(#SVGID_18_);fill:#040000;}
	.st45{fill:#040000;}
	.st46{display:none;}
	.st47{display:inline;fill:none;stroke:#111111;stroke-width:3;stroke-miterlimit:10;}
	.st48{fill:url(#SVGID_19_);}
	.st49{fill:#B8BABA;}
	.st50{fill:#FFFFFF;}
	.st51{fill:#E9EAEB;}
	.st52{fill:#B0B1B1;}
	.st53{fill:url(#SVGID_20_);}
	.st54{fill:#AE7863;}
	.st55{fill:#DBBCB0;}
	.st56{fill:#99563C;}
	.st57{fill:url(#SVGID_21_);}
	.st58{fill:#7A7D7D;}
	.st59{fill:#D8D9D9;}
	.st60{fill:#5E6161;}
	.st61{fill:url(#SVGID_22_);}
	.st62{fill:#CDAC6B;}
	.st63{fill:#F2E3C2;}
	.st64{fill:#865E10;}
</style>
<g id="DFL">
</g>
<g id="Clicked">
</g>
<g id="图层_4">
</g>
<g id="my">
	<g class="st46">
		<path class="st47" d="M44,18c0,1.6-1.3,3-3,3H18c-1.6,0-3-1.4-3-3V6c0-1.7,1.3-3,3-3h23c1.7,0,3,1.3,3,3V18z"/>
	</g>
	<g>
		<g>
			<linearGradient id="SVGID_1_" gradientUnits="userSpaceOnUse" x1="0" y1="20.0858" x2="125" y2="20.0858">
				<stop  offset="2.198748e-03" style="stop-color:#9EA1A1"/>
				<stop  offset="0.3742" style="stop-color:#D9DADA"/>
				<stop  offset="0.5974" style="stop-color:#F7F7F7"/>
				<stop  offset="0.6647" style="stop-color:#E2E3E2"/>
				<stop  offset="0.8128" style="stop-color:#B9BBBA"/>
				<stop  offset="0.9297" style="stop-color:#9FA2A1"/>
				<stop  offset="1" style="stop-color:#969998"/>
			</linearGradient>
			<path class="st24" d="M105,40.1H20c-11,0-20-9-20-20v0c0-11,9-20,20-20h85c11,0,20,9,20,20v0C125,31.1,116,40.1,105,40.1z"/>
		</g>
		<g>
			<circle class="st58" cx="20" cy="20.1" r="17.5"/>
			<g>
				<circle class="st50" cx="20" cy="10.6" r="2"/>
				<circle class="st50" cx="9.5" cy="17.1" r="1.5"/>
				<circle class="st59" cx="30.5" cy="17.1" r="1.5"/>
				<path class="st59" d="M20,26.6c2.3,0,4.7,0,7,0c1.3-3.3,2.7-6.7,4-10c-1.7,1.3-3.3,2.7-5,4c-2-3.3-4-6.7-6-10
					C20,15.9,20,21.3,20,26.6z"/>
				<rect x="20" y="28.6" class="st59" width="7" height="2"/>
				<path class="st59" d="M20,8.6c1.1,0,2,0.9,2,2s-0.9,2-2,2"/>
				<rect x="13" y="28.6" class="st50" width="7" height="2"/>
				<path class="st50" d="M20,26.6c-2.3,0-4.7,0-7,0c-1.3-3.3-2.7-6.7-4-10c1.7,1.3,3.3,2.7,5,4c2-3.3,4-6.7,6-10
					C20,15.9,20,21.3,20,26.6z"/>
			</g>
		</g>
		<g>
			<path class="st60" d="M46.2,12.7c-0.1,0.6-0.3,1.2-0.5,2h3.7v0.9h-4c-0.5,1.4-1.1,2.6-1.7,3.6l-0.8-0.5c1.1-1.8,1.9-3.9,2.5-6.2
				L46.2,12.7z M44.6,18.2H49v0.9h-2v2.7h2.6v0.9h-2.6v4.7c0.7-0.2,1.5-0.6,2.2-1l0.2,0.9c-0.9,0.5-2.1,1-3.4,1.3l-0.4-0.8
				c0.3-0.1,0.5-0.2,0.5-0.4v-4.7h-2.8v-0.9H46v-2.7h-1.4V18.2z M59.2,22.6c-0.9,1-1.9,1.8-3,2.3c0.8,1.3,1.9,2.4,3.2,3.2l-0.5,0.8
				c-2.8-2-4.6-4.7-5.1-8.2h-2.3v6.9c1.1-0.3,2.3-0.7,3.4-1.2l0.2,0.9c-1.3,0.5-2.9,1-4.7,1.5L50.2,28c0.2-0.1,0.4-0.2,0.4-0.3V13.2
				H58v7.5h-3.4c0.2,1.2,0.6,2.3,1.1,3.4c1-0.5,1.9-1.2,2.8-2.2L59.2,22.6z M57.1,16.6v-2.4h-5.6v2.4H57.1z M51.5,17.4v2.4h5.6v-2.4
				H51.5z"/>
			<path class="st60" d="M65.5,12.6h1v5h1.1v0.9h-4.3v1.1c0,0.7,0,1.3-0.1,1.9h3.4v7.4h-1v-6.4h-2.5c-0.2,3-0.7,5.3-1.6,6.8
				l-0.7-0.7c1-1.9,1.4-4.9,1.5-9V13h1v4.6h2.2V12.6z M67.6,24.5h5.8v-2.1h0.9v2.1h3.3v0.9h-3.3v3.6h-0.9v-3.6h-5.8V24.5z
				 M68.6,14.2h2.7c0.3-0.6,0.5-1.2,0.7-1.9l1,0.1c-0.1,0.6-0.4,1.2-0.6,1.8h4.2v7.4h-4.1l-0.3,0.5c-0.6,0.9-1.5,1.7-2.8,2.2
				L69,23.6c1.1-0.5,2-1.2,2.5-2h-2.8V14.2z M69.6,17.4h2.6v-2.4h-2.6V17.4z M71.8,20.7c0.2-0.6,0.3-1.4,0.4-2.4h-2.6v2.4H71.8z
				 M75.7,20.7v-2.4h-2.6c0,0.9-0.1,1.7-0.3,2.4H75.7z M73.1,15.1v2.4h2.6v-2.4H73.1z"/>
			<path class="st60" d="M88,12.5c2.3,2.7,5,4.7,8,6.3l-0.5,0.9c-3.1-1.7-5.7-3.8-7.9-6.3c-2,2.4-4.7,4.6-8,6.4l-0.5-0.9
				c3.2-1.7,5.9-3.8,8.1-6.3H88z M80.4,21.8h14.6v1h-8.7c-0.9,1.8-2.1,3.5-3.4,4.9c3.3-0.2,6.4-0.5,9.2-0.9c-0.8-1-1.5-2-2.2-2.8
				l0.8-0.5c1.7,1.9,3,3.5,3.8,4.9l-0.8,0.6c-0.3-0.5-0.7-1.1-1-1.6c-2.7,0.5-6.3,0.8-10.9,1.1l-0.3-0.9c0.2-0.1,0.4-0.2,0.5-0.3
				c1.4-1.5,2.4-3.1,3.3-4.7h-4.8V21.8z M83.2,18.2h8.9v0.9h-8.9V18.2z"/>
			<path class="st60" d="M106.6,21.5c-0.3,2.7-0.8,4.4-1.7,5.4c-1,1.2-3.1,1.9-6.4,2.2l-0.4-0.9c3-0.2,5-0.8,6-1.9
				c0.9-1,1.4-2.6,1.5-4.9L106.6,21.5z M111.7,19.1v6.5h-1V20h-9.4v5.8h-1v-6.8H111.7z M101.2,13.2h9.3v4.3h-9.3V13.2z M109.5,16.5
				v-2.4h-7.4v2.4H109.5z M107.1,25.7c2.3,0.8,4.5,1.7,6.4,2.7l-0.5,0.8c-2.1-1.2-4.2-2.1-6.3-2.8L107.1,25.7z"/>
		</g>
	</g>
</g>
</svg>
